<svg xmlns="http://www.w3.org/2000/svg" viewBox="0 0 800 450">
  <!-- Bakgrunn -->
  <rect width="800" height="450" fill="#f8f9fa" rx="10" ry="10" />
  
  <!-- Overskrift -->
  <text x="400" y="40" font-family="Arial, sans-serif" font-size="24" font-weight="bold" text-anchor="middle" fill="#333">Self-service i offentlig sky</text>
  
  <!-- Applikasjonseier boks -->
  <rect x="80" y="120" width="180" height="80" rx="10" ry="10" fill="#e1f5fe" stroke="#0288d1" stroke-width="2" />
  <text x="170" y="165" font-family="Arial, sans-serif" font-size="16" font-weight="bold" text-anchor="middle" fill="#01579b">Applikasjonseier</text>
  
  <!-- Cloud Portal boks -->
  <rect x="310" y="120" width="180" height="80" rx="10" ry="10" fill="#e8eaf6" stroke="#3f51b5" stroke-width="2" />
  <text x="400" y="165" font-family="Arial, sans-serif" font-size="16" font-weight="bold" text-anchor="middle" fill="#1a237e">Skyportal</text>
  
  <!-- Automatisert policy sjekk -->
  <rect x="310" y="260" width="180" height="80" rx="10" ry="10" fill="#fff3e0" stroke="#ff9800" stroke-width="2" />
  <text x="400" y="290" font-family="Arial, sans-serif" font-size="16" font-weight="bold" text-anchor="middle" fill="#e65100">Automatisert</text>
  <text x="400" y="315" font-family="Arial, sans-serif" font-size="16" font-weight="bold" text-anchor="middle" fill="#e65100">Policy Sjekk</text>
  
  <!-- Cloud ressurser boks -->
  <rect x="540" y="120" width="180" height="80" rx="10" ry="10" fill="#e0f2f1" stroke="#009688" stroke-width="2" />
  <text x="630" y="165" font-family="Arial, sans-serif" font-size="16" font-weight="bold" text-anchor="middle" fill="#004d40">Skyressurser</text>
  
  <!-- IT-avdeling (Governance) boks -->
  <rect x="540" y="260" width="180" height="80" rx="10" ry="10" fill="#e8f5e9" stroke="#43a047" stroke-width="2" />
  <text x="630" y="290" font-family="Arial, sans-serif" font-size="16" font-weight="bold" text-anchor="middle" fill="#1b5e20">IT-avdeling</text>
  <text x="630" y="315" font-family="Arial, sans-serif" font-size="16" font-weight="bold" text-anchor="middle" fill="#1b5e20">(Governance)</text>
  
  <!-- Piler -->
  <!-- Fra applikasjonseier til cloud portal -->
  <path d="M 260,160 L 310,160" stroke="#666" stroke-width="2" fill="none" marker-end="url(#arrowhead)" />
  
  <!-- Fra cloud portal til policy sjekk -->
  <path d="M 400,200 L 400,260" stroke="#666" stroke-width="2" fill="none" marker-end="url(#arrowhead)" />
  
  <!-- Fra policy sjekk til cloud ressurser -->
  <path d="M 490,300 L 520,300 L 520,160 L 540,160" stroke="#666" stroke-width="2" fill="none" marker-end="url(#arrowhead)" />
  
  <!-- Fra IT til policy -->
  <path d="M 540,300 L 490,300" stroke="#666" stroke-width="2" fill="none" marker-end="url(#arrowhead)" />
  
  <!-- Fra cloud ressurser til applikasjonseier -->
  <path d="M 540,140 L 520,140 L 520,90 L 170,90 L 170,120" stroke="#666" stroke-width="2" fill="none" marker-end="url(#arrowhead)" />

  
  <!-- Arrowhead markør -->
  <defs>
    <marker id="arrowhead" markerWidth="10" markerHeight="7" refX="9" refY="3.5" orient="auto">
      <polygon points="0 0, 10 3.5, 0 7" fill="#666" />
    </marker>
  </defs>
  
  <!-- Tekst ved piler -->
  <text x="185" y="150" font-family="Arial, sans-serif" font-size="12" fill="#666">1. Bestiller</text>
  
  <text x="410" y="235" font-family="Arial, sans-serif" font-size="12" fill="#666">2. Validerer</text>
  
  <text x="540" y="240" font-family="Arial, sans-serif" font-size="12" fill="#666">3. Oppretter</text>
  
  <text x="540" y="250" font-family="Arial, sans-serif" font-size="12" fill="#666">Definerer policy</text>
  
  <text x="540" y="110" font-family="Arial, sans-serif" font-size="12" fill="#666">4. Leveres</text>
  
  
  <!-- Tidsindikator -->
  <line x1="100" y1="400" x2="700" y2="400" stroke="#999" stroke-width="2" stroke-dasharray="5,5" />
  <polygon points="700,400 690,395 690,405" fill="#999" />
  <text x="380" y="430" font-family="Arial, sans-serif" font-size="14" text-anchor="middle" fill="#666">Minutter</text>
</svg>